HIERARCHY
ROOT Hips
{
	OFFSET 0.000000 0.000000 0.000000
	CHANNELS 6 Xposition Yposition Zposition Zrotation Yrotation Xrotation 
	JOINT LeftUpLeg_virtual
	{
		OFFSET 0.000000 0.000000 0.000000
		CHANNELS 3 Zrotation Yrotation Xrotation
		JOINT LeftUpLeg
		{
			OFFSET 8.479694 -4.795517 -0.379053
			CHANNELS 3 Zrotation Yrotation Xrotation
			JOINT LeftLeg
			{
				OFFSET 0.485052 -32.551468 0.112863
				CHANNELS 3 Zrotation Yrotation Xrotation
				JOINT LeftFoot
				{
					OFFSET 0.438033 -32.635670 -3.012641
					CHANNELS 3 Zrotation Yrotation Xrotation
					JOINT LeftToeBase
					{
						OFFSET 0.970169 -13.225353 11.864223
						CHANNELS 3 Zrotation Yrotation Xrotation
						End Site
						{
							OFFSET 0.000000 0.000000 0.000000
						}
					}
				}
			}
		}
	}
	JOINT RightUpLeg_virtual
	{
		OFFSET 0.000000 0.000000 0.000000
		CHANNELS 3 Zrotation Yrotation Xrotation
		JOINT RightUpLeg
		{
			OFFSET -8.479694 -4.795517 -0.379053
			CHANNELS 3 Zrotation Yrotation Xrotation
			JOINT RightLeg
			{
				OFFSET -0.484100 -32.551483 0.112903
				CHANNELS 3 Zrotation Yrotation Xrotation
				JOINT RightFoot
				{
					OFFSET -0.438985 -32.635651 -3.012681
					CHANNELS 3 Zrotation Yrotation Xrotation
					JOINT RightToeBase
					{
						OFFSET -0.970169 -13.225354 11.864223
						CHANNELS 3 Zrotation Yrotation Xrotation
						End Site
						{
							OFFSET 0.000000 0.000000 0.000000
						}
					}
				}
			}
		}
	}
	JOINT Spine_virtual
	{
		OFFSET 0.000000 0.000000 0.000000
		CHANNELS 3 Zrotation Yrotation Xrotation
		JOINT Spine
		{
			OFFSET 0.000000 7.722015 1.166203
			CHANNELS 3 Zrotation Yrotation Xrotation
			JOINT Spine1
			{
				OFFSET 0.000000 12.024086 0.248766
				CHANNELS 3 Zrotation Yrotation Xrotation
				JOINT Spine2
				{
					OFFSET -0.000000 11.503036 -0.491240
					CHANNELS 3 Zrotation Yrotation Xrotation
					JOINT Neck_virtual
					{
						OFFSET 0.000000 0.000000 0.000000
						CHANNELS 3 Zrotation Yrotation Xrotation
						JOINT Neck
						{
							OFFSET 0.000000 18.430687 -3.123054
							CHANNELS 3 Zrotation Yrotation Xrotation
							JOINT Head
							{
								OFFSET -0.000000 9.051071 1.034021
								CHANNELS 3 Zrotation Yrotation Xrotation
								End Site
								{
									OFFSET 0.000000 0.000000 0.000000
								}
							}
						}
					}
					JOINT LeftShoulder_virtual
					{
						OFFSET 0.000000 0.000000 0.000000
						CHANNELS 3 Zrotation Yrotation Xrotation
						JOINT LeftShoulder
						{
							OFFSET 6.197824 13.665230 -4.064723
							CHANNELS 3 Zrotation Yrotation Xrotation
							JOINT LeftArm
							{
								OFFSET 7.778132 -0.187073 -1.709282
								CHANNELS 3 Zrotation Yrotation Xrotation
								JOINT LeftForeArm
								{
									OFFSET 21.954697 0.000000 -2.041093
									CHANNELS 3 Zrotation Yrotation Xrotation
									JOINT LeftHand
									{
										OFFSET 22.992908 0.000000 -0.870901
										CHANNELS 3 Zrotation Yrotation Xrotation
										End Site
										{
											OFFSET 0.000000 0.000000 0.000000
										}
									}
								}
							}
						}
					}
					JOINT RightShoulder_virtual
					{
						OFFSET 0.000000 0.000000 0.000000
						CHANNELS 3 Zrotation Yrotation Xrotation
						JOINT RightShoulder
						{
							OFFSET -6.197824 13.665230 -4.064723
							CHANNELS 3 Zrotation Yrotation Xrotation
							JOINT RightArm
							{
								OFFSET -7.778132 -0.187073 -1.709282
								CHANNELS 3 Zrotation Yrotation Xrotation
								JOINT RightForeArm
								{
									OFFSET -21.954697 0.000000 -2.041093
									CHANNELS 3 Zrotation Yrotation Xrotation
									JOINT RightHand
									{
										OFFSET -22.992908 0.000000 -0.870901
										CHANNELS 3 Zrotation Yrotation Xrotation
										End Site
										{
											OFFSET 0.000000 0.000000 0.000000
										}
									}
								}
							}
						}
					}
				}
			}
		}
	}
}
MOTION
Frames: 14
Frame Time: 0.033333
-16.076078 76.575089 21.799347 -179.728150 21.577199 178.823778 2.828125 1.978605 16.558646 -18.373590 4.679966 -29.253253 11.690340 9.679285 33.216012 0.251226 -5.050319 -22.010790 0.000000 0.000000 0.000000 5.645504 -3.238785 20.130302 -2.537833 -28.225183 -49.443975 -3.284964 -4.914734 41.207061 1.867662 8.113944 7.731316 0.000000 0.000000 0.000000 12.622040 -0.318695 12.272283 16.634588 1.478648 -4.739030 -1.423149 -4.809625 13.868359 -0.118886 -0.631520 -0.133637 -1.559972 -3.371252 15.444907 -2.985986 0.640194 -21.324417 0.000000 0.000000 0.000000 0.157478 -2.681657 12.149015 -10.073508 -6.478355 8.849003 -56.485938 -18.120164 14.140678 -2.087831 -29.721165 23.412546 0.000000 0.000000 0.000000 -4.731180 -0.788200 11.510805 29.239565 9.118530 7.278532 44.639535 21.296096 -5.548209 -2.902629 22.259646 -8.840298 0.000000 0.000000 0.000000 
-16.125946 76.546181 21.708069 -179.709640 21.320354 178.769929 3.099387 2.244077 16.692856 -18.467997 4.468639 -29.128899 11.567678 9.619539 33.249009 0.165988 -5.411843 -21.989630 0.000000 0.000000 0.000000 5.864522 -4.394357 20.164978 -2.574101 -27.716153 -49.869462 -3.256559 -4.002167 41.216251 1.922381 8.424769 7.752219 0.000000 0.000000 0.000000 13.214846 0.300966 12.498175 17.317999 1.130229 -5.165634 -1.320865 -4.799091 13.973628 -0.128960 -0.984175 -0.169398 -1.421239 -3.494830 15.457423 -2.962327 0.378144 -21.169896 0.000000 0.000000 0.000000 0.247876 -2.749422 12.199858 -10.167516 -6.628448 9.113118 -56.397637 -18.112939 15.106253 -2.464228 -30.581636 23.940175 0.000000 0.000000 0.000000 -4.652882 -1.033476 11.419364 29.181509 8.941226 7.181911 45.049261 21.009290 -5.950720 -2.862985 22.355894 -9.160482 0.000000 0.000000 0.000000 
-16.162413 76.521759 21.610851 -179.664738 21.032357 178.754274 3.331105 2.474785 16.752682 -18.605898 4.252681 -28.971924 11.424921 9.548914 33.281555 0.035712 -5.734721 -21.999980 0.000000 0.000000 0.000000 6.151953 -3.444370 20.640944 -2.438935 -28.802908 -50.064665 -3.171838 -3.810617 41.226564 1.857537 8.616864 7.446699 0.000000 0.000000 0.000000 13.524416 -0.320571 12.766625 17.792400 1.250528 -5.473428 -1.263653 -5.219756 14.021752 -0.141579 -0.519587 -0.092023 -1.354902 -3.602097 15.554163 -2.955329 0.289743 -20.809906 0.000000 0.000000 0.000000 0.418093 -2.955303 12.213026 -10.236185 -6.279943 9.232250 -56.366023 -18.084420 16.067848 -2.729318 -31.146400 24.376489 0.000000 0.000000 0.000000 -4.573630 -0.994365 11.574678 28.903725 8.947456 6.943844 45.223714 20.744741 -6.145379 -2.822945 22.579330 -9.438246 0.000000 0.000000 0.000000 
-16.217224 76.496994 21.489544 -179.609455 21.405994 178.723128 3.560452 2.656911 16.773319 -18.793177 4.095332 -28.799329 11.315553 9.537371 33.323342 -0.044837 -5.885926 -22.024565 0.000000 0.000000 0.000000 6.498315 -2.808436 20.830921 -2.691304 -28.850135 -50.072998 -3.161093 -3.502971 41.375616 1.782237 8.740357 7.395754 0.000000 0.000000 0.000000 14.069604 0.354292 12.926882 18.203040 1.625822 -5.720587 -1.130312 -4.907152 14.078352 -0.052956 -0.591740 -0.170390 -1.170240 -3.672969 15.482898 -2.938233 0.188902 -20.519014 0.000000 0.000000 0.000000 0.485165 -3.525197 12.298876 -10.187132 -6.508705 9.349213 -56.094418 -18.395182 17.011435 -3.003215 -31.327148 24.716219 0.000000 0.000000 0.000000 -4.500912 -1.717319 11.407640 28.741976 8.660823 6.732491 45.244437 20.314475 -6.151226 -2.674058 22.647994 -9.621912 0.000000 0.000000 0.000000 
-16.303814 76.469002 21.360615 -179.534145 20.711297 178.714905 3.772497 2.543407 16.739192 -18.990567 3.895976 -28.607363 11.226055 9.389715 33.367260 -0.207575 -6.081182 -22.049273 0.000000 0.000000 0.000000 6.657441 -3.179377 20.855728 -2.879100 -29.130723 -50.101138 -3.171473 -3.276538 41.512240 1.701311 8.799144 7.347873 0.000000 0.000000 0.000000 14.595913 0.004818 12.952414 18.664470 1.539874 -6.257040 -1.123486 -5.047487 13.947742 -0.067322 -0.617220 -0.043824 -1.135488 -3.694633 15.526265 -2.888491 0.249988 -20.201879 0.000000 0.000000 0.000000 0.476343 -3.488155 12.460079 -10.201532 -6.269995 9.348716 -55.867741 -18.733819 17.583181 -3.302145 -31.351033 25.207856 0.000000 0.000000 0.000000 -4.578128 -1.553478 11.294339 28.582846 8.658196 6.754108 45.142855 19.895844 -5.987482 -2.760470 22.766646 -10.109728 0.000000 0.000000 0.000000 
-16.381218 76.433502 21.244162 -179.523572 20.377548 178.689756 3.975697 2.445678 16.692402 -19.203529 3.729317 -28.441480 11.174734 9.263926 33.426242 -0.368204 -6.217918 -22.109843 0.000000 0.000000 0.000000 6.815296 -3.447806 20.828858 -3.130676 -29.284105 -50.134172 -3.187254 -3.104102 41.720319 1.657203 8.844150 7.285846 0.000000 0.000000 0.000000 14.900428 -0.692170 12.731830 19.106829 1.131705 -6.304113 -1.145490 -4.944974 14.152681 -0.111458 -0.687975 -0.110356 -1.188805 -3.886318 15.328135 -2.973740 0.024101 -19.872671 0.000000 0.000000 0.000000 0.501405 -3.043106 12.084258 -10.361599 -5.941993 9.538243 -55.597337 -18.772683 18.156798 -3.422190 -31.413444 25.280063 0.000000 0.000000 0.000000 -4.575807 -1.371076 11.211643 28.235558 8.934193 6.840049 44.796858 19.959408 -6.094453 -2.618494 22.475057 -10.101059 0.000000 0.000000 0.000000 
-16.437992 76.403503 21.159912 -179.485118 20.378359 178.660905 4.197637 2.437899 16.679066 -19.368506 3.607530 -28.332337 11.157756 9.154785 33.493947 -0.522904 -6.307171 -22.203509 0.000000 0.000000 0.000000 7.037758 -3.439985 20.844168 -3.393474 -29.290645 -50.181004 -3.212708 -2.993048 41.990538 1.594076 8.836859 7.265986 0.000000 0.000000 0.000000 15.370748 -0.257321 12.659714 19.490901 1.076291 -6.630152 -1.220639 -5.290919 14.140224 -0.133293 -0.835299 -0.162210 -1.228076 -3.839902 15.334371 -3.132795 0.103582 -19.561307 0.000000 0.000000 0.000000 0.475901 -3.111761 11.995245 -10.396171 -5.567889 9.608498 -55.430380 -18.592868 18.411953 -3.385662 -31.457577 25.209552 0.000000 0.000000 0.000000 -4.613037 -1.339955 11.169518 28.103280 9.035660 6.767329 44.523155 19.721797 -6.168089 -2.458298 22.200500 -10.165557 0.000000 0.000000 0.000000 
-16.442793 76.381302 21.118135 -179.458876 20.254199 178.634049 4.392196 2.477098 16.666645 -19.459260 3.511329 -28.250079 11.160789 9.032404 33.556450 -0.707852 -6.416917 -22.306898 0.000000 0.000000 0.000000 7.246716 -3.435495 20.886601 -3.596899 -29.310019 -50.236659 -3.230973 -2.943858 42.251963 1.518106 8.806396 7.220443 0.000000 0.000000 0.000000 15.633989 -0.467513 12.618978 19.788602 1.444757 -6.810516 -1.251490 -5.211537 14.126622 -0.107050 -0.702478 -0.184084 -1.199912 -3.767574 15.329140 -3.265970 0.240761 -19.321803 0.000000 0.000000 0.000000 0.433377 -3.487560 12.036384 -10.358183 -5.327401 9.653177 -55.259116 -18.410985 18.867295 -3.484348 -31.489289 25.236770 0.000000 0.000000 0.000000 -4.628356 -1.731345 11.102286 28.075043 8.969597 6.857307 44.268392 19.540527 -6.394873 -2.425828 22.216660 -10.361983 0.000000 0.000000 0.000000 
-16.396852 76.366592 21.099472 -179.437962 20.047771 178.607644 4.534588 2.490709 16.624141 -19.478328 3.431572 -28.154228 11.186878 8.920250 33.607249 -0.894709 -6.510767 -22.397485 0.000000 0.000000 0.000000 7.418531 -3.517993 20.908194 -3.745702 -29.336656 -50.273170 -3.235981 -2.931735 42.471817 1.441873 8.778635 7.165413 0.000000 0.000000 0.000000 15.905197 -0.323209 12.510362 20.048145 1.525212 -7.028819 -1.340936 -5.458394 14.024188 -0.112844 -1.230594 -0.069986 -1.309224 -3.934977 15.375499 -3.417817 0.215794 -19.012839 0.000000 0.000000 0.000000 0.410751 -3.313369 11.988818 -10.315291 -4.949056 9.688955 -55.027436 -18.108269 18.914554 -3.651403 -31.565135 25.340203 0.000000 0.000000 0.000000 -4.677129 -1.447210 11.129307 28.197222 9.094665 6.855356 44.112807 19.576335 -6.754616 -2.321008 22.030102 -10.553832 0.000000 0.000000 0.000000 
-16.315601 76.369492 21.098629 -179.411762 20.197564 178.576498 4.624669 2.511483 16.547158 -19.444201 3.394781 -28.033427 11.248143 8.872162 33.641178 -1.044005 -6.535242 -22.450929 0.000000 0.000000 0.000000 7.581291 -3.494617 20.910848 -3.921139 -29.191245 -50.262686 -3.232762 -2.906812 42.597540 1.360107 8.751136 7.117399 0.000000 0.000000 0.000000 16.103037 -0.241847 12.434684 20.192022 1.392746 -7.072593 -1.519657 -5.341387 14.206659 -0.045226 -0.702673 -0.082637 -1.327239 -4.109047 15.268418 -3.514479 0.246886 -18.845592 0.000000 0.000000 0.000000 0.328179 -3.470487 12.053418 -10.163364 -4.849360 9.629589 -54.793864 -18.024572 19.129705 -3.921251 -31.515859 25.566417 0.000000 0.000000 0.000000 -4.789049 -1.714617 10.835445 28.463516 8.954369 7.053220 44.174204 19.504309 -7.062862 -2.445201 22.016381 -10.605240 0.000000 0.000000 0.000000 
-16.223133 76.389275 21.109575 -179.421078 20.143563 178.546486 4.643800 2.517088 16.436036 -19.379630 3.369317 -27.895403 11.316650 8.822827 33.658790 -1.196684 -6.574633 -22.464246 0.000000 0.000000 0.000000 7.679092 -3.514443 20.918223 -4.037150 -29.089479 -50.206716 -3.222367 -2.889326 42.644880 1.260835 8.710870 7.074757 0.000000 0.000000 0.000000 15.992524 -0.273390 12.377078 20.420688 1.071352 -7.109867 -1.480923 -5.471878 14.297152 -0.128703 -0.891620 -0.223423 -1.434638 -3.896797 15.300829 -3.812373 0.446963 -18.894755 0.000000 0.000000 0.000000 0.286286 -3.265567 11.776532 -10.215336 -4.777623 9.867532 -54.679090 -17.487105 19.384768 -3.669369 -31.781546 25.178705 0.000000 0.000000 0.000000 -4.822700 -1.552196 10.924701 28.590132 9.154928 7.094654 44.393641 19.781722 -7.323082 -2.199281 21.846427 -10.401159 0.000000 0.000000 0.000000 
-16.127863 76.410316 21.131336 -179.416270 20.041669 178.532402 4.637621 2.579378 16.336605 -19.293085 3.354180 -27.783198 11.401502 8.772729 33.683225 -1.326102 -6.614596 -22.476438 0.000000 0.000000 0.000000 7.735269 -3.424172 20.979064 -4.093001 -28.977972 -50.129098 -3.209024 -2.880605 42.635171 1.146957 8.652526 7.019757 0.000000 0.000000 0.000000 15.867438 -0.737253 12.356229 20.488979 1.260064 -7.037964 -1.479574 -5.160375 14.372788 -0.103458 -0.701028 -0.222317 -1.430958 -3.829427 15.270484 -3.963826 0.530375 -18.903144 0.000000 0.000000 0.000000 0.216502 -3.452612 11.867222 -10.089440 -4.815799 9.881998 -54.532090 -17.517243 19.512049 -3.689324 -31.824426 25.092701 0.000000 0.000000 0.000000 -4.873748 -1.868692 10.894451 28.756340 8.850807 6.938347 44.610643 19.786583 -7.441348 -2.196366 22.202134 -10.383212 0.000000 0.000000 0.000000 
-16.043125 76.428917 21.167311 -179.403593 20.380449 178.523455 4.619221 2.749437 16.301638 -19.206205 3.361472 -27.769398 11.494775 8.755021 33.732467 -1.400795 -6.629828 -22.515338 0.000000 0.000000 0.000000 7.774065 -3.160594 21.062254 -4.153670 -28.675094 -50.098031 -3.201489 -2.848228 42.592486 1.044268 8.587990 6.995319 0.000000 0.000000 0.000000 15.948695 0.052511 12.395928 20.506110 1.201096 -7.162839 -1.641223 -5.893286 14.392529 -0.105413 -0.616746 -0.125088 -1.503302 -3.940416 15.309078 -4.036322 0.630253 -18.741325 0.000000 0.000000 0.000000 0.202804 -3.364790 11.894677 -9.976624 -4.611202 9.833330 -54.524130 -17.615413 19.572052 -3.926804 -31.817121 25.220619 0.000000 0.000000 0.000000 -4.915563 -1.601344 10.981775 28.865896 8.912917 6.927574 44.779345 19.761960 -7.676519 -2.260203 22.376241 -10.449512 0.000000 0.000000 0.000000 
-15.978878 76.430946 21.213219 -179.403197 20.426736 178.510327 4.581953 2.898263 16.333004 -19.130247 3.349004 -27.834669 11.574673 8.721475 33.808712 -1.451845 -6.684406 -22.587270 0.000000 0.000000 0.000000 7.741756 -3.001759 21.188831 -4.103655 -28.530636 -50.114222 -3.186978 -2.853697 42.542947 0.973027 8.536084 6.959122 0.000000 0.000000 0.000000 15.773827 -0.197408 12.548850 20.542743 1.241408 -7.090432 -1.572532 -5.371137 14.411272 -0.097395 -0.766730 -0.218166 -1.495403 -3.853070 15.362957 -4.135236 0.598001 -18.835341 0.000000 0.000000 0.000000 0.180152 -3.423811 11.922678 -9.915109 -4.756467 9.937142 -54.696080 -17.541869 19.751768 -3.621907 -31.862184 24.719623 0.000000 0.000000 0.000000 -4.938185 -1.751892 10.834832 28.950023 8.792071 7.073131 44.888051 19.653401 -8.025353 -2.285116 22.742303 -10.440520 0.000000 0.000000 0.000000 
